<?xml version="1.0"?>

<svg fill="#3660EB" xmlns="http://www.w3.org/2000/svg" id="Layer_1" version="1.1" viewBox="0 0 1376.2632 517.0161" width="1376.26318359375" height="517.01611328125">
  
  <defs>
    
  </defs>
  <path class="st0" d="M183.6401,318.3979c12.3805,0,23.8437-2.8646,34.381-8.5919v-51.295c-2.0331,5.3631-6.0993,9.619-12.1984,12.7602-6.1002,3.1402-13.1243,4.7079-21.0745,4.7079-10.7204,0-19.0358-3.0024-24.9518-9.0072-5.9181-6.0048-8.8695-13.5397-8.8695-22.5979,0-9.0505,2.908-16.6374,8.7307-22.7366,5.8217-6.0992,14.0936-9.145,24.8121-9.145,7.7681,0,14.7431,1.6178,20.9368,4.8534,6.1869,3.2346,10.3995,7.1629,12.6147,11.7764v-50.1811c-10.7194-5.5452-22.1827-8.3144-34.381-8.3144-22.3657,0-40.4813,6.792-54.3418,20.375-13.8605,13.584-20.7902,31.4663-20.7902,53.6489,0,22.0005,6.9297,39.7884,20.7902,53.3724,13.8605,13.583,31.9761,20.375,54.3418,20.375"></path>
  <path class="st0" d="M235.597,178.9409v50.1802c11.0142-20.9406,55.0287-23.5634,66.5902-.6967-51.6602,1.0869-77.5148,17.4555-77.5148,49.1299,0,12.2216,4.7648,22.1778,14.3037,29.8601,9.5362,7.6861,23.4699,11.5268,41.8013,11.5268,6.4807,0,13.8885-.5126,22.2212-1.5272,8.3317-1.0165,15.089-1.9454,20.2767-2.7788,5.181-.8325,9.9977-1.0146,14.4416-.555,4.4448.4644,7.5011,1.9916,9.1671,4.5826v-79.7098c4.9632-86.7802-101.5966-70.2921-111.2869-60.0121ZM302.7201,280.0548c-4.9989.9288-9.9997,1.3894-14.9985,1.3894-12.7755,0-19.1629-3.7935-19.1629-11.388,0-9.6258,11.3862-14.9021,34.1614-15.831v25.8296Z"></path>
  <path class="st0" d="M436.3206,223.0228v-50.1792c-6.9086-1.48-13.9993-2.2229-21.2788-2.2229-7.8413,0-15.1285,1.1582-21.8473,3.4687-6.7197,2.3096-13.0665,6.0559-19.0414,11.2291-5.9759,5.1742-10.7338,12.6657-14.2825,22.4601-3.5497,9.7934-5.3197,21.3443-5.3197,34.6508v58.5023c0,8.8761.2765,16.3599.2765,16.3599h48.73c-2.616-2.0331-3.9206-7.4838-3.9206-16.3599v-57.665c0-9.8002,1.7267-16.8696,5.181-21.2123,3.4543-4.3436,9.0071-6.5154,16.6586-6.5154,7.2805,0,12.2283,2.4927,14.8442,7.4838"></path>
  <path class="st0" d="M502.1544,318.6744c6.6533,0,14.3192-.8306,23.0132-2.4917v-47.411c-2.5871,4.9911-7.4838,7.4838-14.6911,7.4838-7.5859,0-13.081-2.1718-16.4987-6.5145-3.4244-4.3359-5.1299-11.4122-5.1299-21.2065v-37.712h18.5751c10.1663,0,16.0834,1.2102,17.7446,3.6085v-42.6973h-36.3197v-14.1438c0-8.8684,1.2892-14.3192,3.884-16.3532h-48.2926l-.2332,109.7905c0,45.1004,19.318,67.6472,57.9482,67.6472"></path>
  <path class="st0" d="M750.1069,171.7336h-52.6844c2.0331,1.2969,3.2346,2.8203,3.6065,4.5759.3642,1.7565.554,5.1308.554,10.1152l-.0116,67.6521c0,11.364-8.7827,20.613-19.5801,20.613s-19.5782-9.2471-19.5801-20.6101h.0019v-67.6511c0-4.9844.1821-8.3587.5618-10.1152.3633-1.7556,1.5658-3.2789,3.5998-4.5759h-52.6979c2.0331,1.2969,3.2356,2.8203,3.6056,4.5759.3652,1.7565.555,5.1308.555,10.1152v67.6482c0,11.364-8.7827,20.613-19.5801,20.613s-19.5791-9.249-19.5791-20.613h-.0058v-67.6521c0-4.9844.1821-8.3587.5608-10.1152.3652-1.7556,1.5677-3.2789,3.6007-4.5759h-52.7027c2.0331,1.2969,3.2355,2.8203,3.6075,4.5759.3633,1.7565.5531,5.1308.5531,10.1152v67.8756h.0231c.1204,35.73,28.7539,64.7633,63.9424,64.7633,15.9668,0,30.549-6.0173,41.7665-15.8839,11.2194,9.8666,25.8017,15.8839,41.7675,15.8839,35.2077,0,63.8557-29.0632,63.9462-64.8183h.0077v-67.8207c0-4.9844.1821-8.3587.5608-10.1152.3652-1.7556,1.5676-3.2789,3.6007-4.5759"></path>
  <path class="st0" d="M832.2082,223.0228v-50.1792c-6.8353-1.48-13.8595-2.2229-21.0668-2.2229-7.7613,0-14.9753,1.1582-21.6295,3.4687-6.6523,2.3096-12.9346,6.0559-18.8517,11.2291-5.9171,5.1742-10.6327,12.6657-14.1371,22.4601-3.5121,9.7934-5.2696,21.3443-5.2696,34.6508v58.5023c0,8.8761-1.296,14.3269-3.8831,16.3599h52.4021c-2.5862-2.0331-3.884-7.4838-3.884-16.3599v-57.665c0-9.8002,1.7132-16.8696,5.1299-21.2123,3.4187-4.3436,8.9204-6.5154,16.4987-6.5154,7.2073,0,12.1039,2.4927,14.691,7.4838"></path>
  <path class="st0" d="M892.5986,135.6317c0-14.9686-12.1483-27.1236-27.1304-27.1236s-27.1304,12.155-27.1304,27.1236c0,15.0043,12.1483,27.1304,27.1304,27.1304s27.1304-12.1261,27.1304-27.1304"></path>
  <path class="st0" d="M887.7861,300.9318v-113.3971c0-8.4975,1.2969-13.7661,3.8831-15.7992h-52.4021c2.5871,2.0331,3.884,7.3017,3.884,15.7992v113.3971c0,8.8761-1.2969,14.3269-3.884,16.3599h52.4021c-2.5862-2.0331-3.8831-7.4838-3.8831-16.3599"></path>
  <path class="st0" d="M1182.7469,317.2917c-2.5948-2.0331-3.8851-7.4838-3.8851-16.3599v-65.4321c0-43.0606-19.7766-64.6024-59.3328-64.6024-7.5782,0-15.4339,1.1158-23.5661,3.3309v-41.5892c0-8.8685,1.2969-14.3192,3.884-16.359h-52.4031c2.587,2.0398,3.885,7.4905,3.885,16.359v155.4517c-6.4451,1.6871-13.1609,4.0016-20.1833,7.0204-15.8936,6.843-30.6357,13.6351-44.2198,20.375-13.5829,6.7486-24.0768,10.122-31.4663,10.122-5.7349,0-10.1653-1.3403-13.3064-4.0218-3.1479-2.6816-4.7145-6.238-4.7145-10.6693,0-3.33,1.2891-6.9375,3.8763-10.8138,7.7681,3.1411,15.7124,4.7146,23.8437,4.7146,18.4807,0,33.8713-6.2813,46.1651-18.8594,12.2938-12.5626,18.4373-28.4562,18.4373-47.6875,0-9.2403-1.5745-18.022-4.7156-26.3364h.6784c9.6046,0,15.5293,1.3846,17.7446,4.1616v-44.3652h-73.0412c-20.8847,0-37.7987,6.1946-50.7332,18.5751-12.9424,12.3882-19.4058,28.3772-19.4058,47.965,0,13.4954,3.5045,25.6947,10.5297,36.6039-12.3815,14.9676-18.5751,29.9429-18.5751,44.9116,0,14.4213,5.4507,26.2044,16.3599,35.3503,10.9015,9.1526,24.6752,13.7217,41.3118,13.7217,10.3475,0,21.6218-1.9887,33.8269-5.9614,12.1983-3.9717,22.8676-8.3655,32.0203-13.1677,9.146-4.81,18.7573-9.197,28.8359-13.1677,10.0711-3.9794,18.3421-5.9614,24.8131-5.9614,11.6454,0,17.468,4.3436,17.468,13.03,0,4.6202-2.777,8.7374-8.3221,12.3372-5.5462,3.6075-12.8479,5.4074-21.8984,5.4074-17.3804,0-28.5593-4.0671-33.5505-12.1994v55.7263c9.9833,2.404,21.5343,3.6065,34.6576,3.6065,23.8438,0,42.7908-6.238,56.8334-18.7129,14.0504-12.4769,21.0755-28.144,21.0755-46.9966,0-9.6325-1.6062-18.1281-4.7841-25.5069h51.8568ZM946.0293,217.203c5.175-5.5461,11.5508-8.3144,19.1291-8.3144,7.3971,0,13.6794,2.7682,18.8594,8.3144,5.1674,5.5452,7.7614,12.4759,7.7614,20.7913,0,8.139-2.594,14.9744-7.7614,20.5205-5.18,5.5452-11.4623,8.3144-18.8594,8.3144-7.5782,0-13.954-2.7692-19.1291-8.3144-5.1734-5.5461-7.7604-12.3815-7.7604-20.5205,0-8.3154,2.587-15.2461,7.7604-20.7913ZM1118.4826,300.1031c-6.475-5.7437-13.9829-9.8628-22.5198-12.3622v-74.9778c5.363-2.0264,10.9091-3.0458,16.6365-3.0458,7.2073,0,12.6146,2.1708,16.2212,6.5145,3.5997,4.3427,5.4073,11.8776,5.4073,22.5979v62.1021c0,8.4136-1.1803,13.7102-3.5044,15.9745-2.8511-6.474-6.9211-12.0828-12.2408-16.8032Z"></path>
  <path class="st0" d="M1231.4355,248.5345v-37.712h18.5751c10.1663,0,16.0834,1.2102,17.7446,3.6085v-42.6973h-36.3196v-14.1438c0-8.8684,1.2902-14.3192,3.8839-16.3532h-48.2926l-.2331,109.7905c0,45.1004,19.319,67.6472,57.9482,67.6472,6.6533,0,14.3191-.8306,23.0132-2.4917v-47.411c-2.5872,4.9911-7.4839,7.4838-14.6912,7.4838-7.5859,0-13.08-2.1718-16.4986-6.5145-3.4245-4.3359-5.1299-11.4122-5.1299-21.2065"></path>
</svg>